<svg width="131" height="82" viewBox="0 0 131 82" fill="none" xmlns="http://www.w3.org/2000/svg">
<g filter="url(#filter0_i)">
<g opacity="0.5">
<path opacity="0.5" d="M44.8164 40.1438C47.1 40.1438 48.9513 38.2925 48.9513 36.0089C48.9513 33.7252 47.1 31.8739 44.8164 31.8739C42.5327 31.8739 40.6814 33.7252 40.6814 36.0089C40.6814 38.2925 42.5327 40.1438 44.8164 40.1438Z" fill="#15142C" fill-opacity="0.2"/>
<path opacity="0.5" d="M4.16206 40.1438C6.44573 40.1438 8.29701 38.2925 8.29701 36.0089C8.29701 33.7252 6.44573 31.8739 4.16206 31.8739C1.87838 31.8739 0.0270996 33.7252 0.0270996 36.0089C0.0270996 38.2925 1.87838 40.1438 4.16206 40.1438Z" fill="#15142C" fill-opacity="0.2"/>
<path opacity="0.5" d="M44.8164 51.8782C46.1417 51.8782 47.2161 50.8038 47.2161 49.4785C47.2161 48.1532 46.1417 47.0789 44.8164 47.0789C43.4911 47.0789 42.4167 48.1532 42.4167 49.4785C42.4167 50.8038 43.4911 51.8782 44.8164 51.8782Z" fill="#15142C" fill-opacity="0.2"/>
<path opacity="0.5" d="M4.16212 51.8782C5.48742 51.8782 6.56179 50.8038 6.56179 49.4785C6.56179 48.1532 5.48742 47.0789 4.16212 47.0789C2.83682 47.0789 1.76245 48.1532 1.76245 49.4785C1.76245 50.8038 2.83682 51.8782 4.16212 51.8782Z" fill="#15142C" fill-opacity="0.2"/>
<path opacity="0.5" d="M17.7136 67.8588C19.9972 67.8588 21.8485 66.0075 21.8485 63.7238C21.8485 61.4402 19.9972 59.5889 17.7136 59.5889C15.4299 59.5889 13.5786 61.4402 13.5786 63.7238C13.5786 66.0075 15.4299 67.8588 17.7136 67.8588Z" fill="#15142C" fill-opacity="0.2"/>
<path opacity="0.5" d="M17.7136 81.716C19.9972 81.716 21.8485 79.8647 21.8485 77.581C21.8485 75.2973 19.9972 73.446 17.7136 73.446C15.4299 73.446 13.5786 75.2973 13.5786 77.581C13.5786 79.8647 15.4299 81.716 17.7136 81.716Z" fill="#15142C" fill-opacity="0.2"/>
<path opacity="0.5" d="M58.3678 40.1438C60.6515 40.1438 62.5027 38.2925 62.5027 36.0089C62.5027 33.7252 60.6515 31.8739 58.3678 31.8739C56.0842 31.8739 54.2329 33.7252 54.2329 36.0089C54.2329 38.2925 56.0842 40.1438 58.3678 40.1438Z" fill="#15142C" fill-opacity="0.2"/>
<path opacity="0.5" d="M17.7136 40.1438C19.9972 40.1438 21.8485 38.2925 21.8485 36.0089C21.8485 33.7252 19.9972 31.8739 17.7136 31.8739C15.4299 31.8739 13.5786 33.7252 13.5786 36.0089C13.5786 38.2925 15.4299 40.1438 17.7136 40.1438Z" fill="#15142C" fill-opacity="0.2"/>
<path opacity="0.5" d="M58.3678 24.2069C60.6515 24.2069 62.5027 22.3556 62.5027 20.072C62.5027 17.7883 60.6515 15.937 58.3678 15.937C56.0842 15.937 54.2329 17.7883 54.2329 20.072C54.2329 22.3556 56.0842 24.2069 58.3678 24.2069Z" fill="#15142C" fill-opacity="0.2"/>
<path opacity="0.5" d="M31.2649 24.2069C33.5486 24.2069 35.3998 22.3556 35.3998 20.072C35.3998 17.7883 33.5486 15.937 31.2649 15.937C28.9813 15.937 27.13 17.7883 27.13 20.072C27.13 22.3556 28.9813 24.2069 31.2649 24.2069Z" fill="#15142C" fill-opacity="0.2"/>
<path opacity="0.5" d="M31.2649 67.8588C33.5486 67.8588 35.3998 66.0075 35.3998 63.7238C35.3998 61.4402 33.5486 59.5889 31.2649 59.5889C28.9813 59.5889 27.13 61.4402 27.13 63.7238C27.13 66.0075 28.9813 67.8588 31.2649 67.8588Z" fill="#15142C" fill-opacity="0.2"/>
<path opacity="0.5" d="M85.4709 67.8588C87.7545 67.8588 89.6058 66.0075 89.6058 63.7238C89.6058 61.4402 87.7545 59.5889 85.4709 59.5889C83.1872 59.5889 81.3359 61.4402 81.3359 63.7238C81.3359 66.0075 83.1872 67.8588 85.4709 67.8588Z" fill="#15142C" fill-opacity="0.2"/>
<path opacity="0.5" d="M31.2649 81.716C33.5486 81.716 35.3998 79.8647 35.3998 77.581C35.3998 75.2973 33.5486 73.446 31.2649 73.446C28.9813 73.446 27.13 75.2973 27.13 77.581C27.13 79.8647 28.9813 81.716 31.2649 81.716Z" fill="#15142C" fill-opacity="0.2"/>
<path opacity="0.5" d="M71.9194 40.1438C74.2031 40.1438 76.0544 38.2925 76.0544 36.0089C76.0544 33.7252 74.2031 31.8739 71.9194 31.8739C69.6358 31.8739 67.7845 33.7252 67.7845 36.0089C67.7845 38.2925 69.6358 40.1438 71.9194 40.1438Z" fill="#15142C" fill-opacity="0.2"/>
<path opacity="0.5" d="M58.3678 51.8782C59.6931 51.8782 60.7675 50.8038 60.7675 49.4785C60.7675 48.1532 59.6931 47.0789 58.3678 47.0789C57.0426 47.0789 55.9682 48.1532 55.9682 49.4785C55.9682 50.8038 57.0426 51.8782 58.3678 51.8782Z" fill="#15142C" fill-opacity="0.2"/>
<path opacity="0.5" d="M17.7135 51.8782C19.0388 51.8782 20.1132 50.8038 20.1132 49.4785C20.1132 48.1532 19.0388 47.0789 17.7135 47.0789C16.3882 47.0789 15.3138 48.1532 15.3138 49.4785C15.3138 50.8038 16.3882 51.8782 17.7135 51.8782Z" fill="#15142C" fill-opacity="0.2"/>
<path opacity="0.5" d="M44.8164 67.8588C47.1 67.8588 48.9513 66.0075 48.9513 63.7238C48.9513 61.4402 47.1 59.5889 44.8164 59.5889C42.5327 59.5889 40.6814 61.4402 40.6814 63.7238C40.6814 66.0075 42.5327 67.8588 44.8164 67.8588Z" fill="#15142C" fill-opacity="0.2"/>
<path opacity="0.5" d="M99.0222 67.8588C101.306 67.8588 103.157 66.0075 103.157 63.7238C103.157 61.4402 101.306 59.5889 99.0222 59.5889C96.7385 59.5889 94.8872 61.4402 94.8872 63.7238C94.8872 66.0075 96.7385 67.8588 99.0222 67.8588Z" fill="#15142C" fill-opacity="0.2"/>
<path opacity="0.5" d="M44.8164 81.716C47.1 81.716 48.9513 79.8647 48.9513 77.581C48.9513 75.2973 47.1 73.446 44.8164 73.446C42.5327 73.446 40.6814 75.2973 40.6814 77.581C40.6814 79.8647 42.5327 81.716 44.8164 81.716Z" fill="#15142C" fill-opacity="0.2"/>
<path opacity="0.5" d="M85.4709 40.1438C87.7545 40.1438 89.6058 38.2925 89.6058 36.0089C89.6058 33.7252 87.7545 31.8739 85.4709 31.8739C83.1872 31.8739 81.3359 33.7252 81.3359 36.0089C81.3359 38.2925 83.1872 40.1438 85.4709 40.1438Z" fill="#15142C" fill-opacity="0.2"/>
<path opacity="0.5" d="M99.0222 40.1438C101.306 40.1438 103.157 38.2925 103.157 36.0089C103.157 33.7252 101.306 31.8739 99.0222 31.8739C96.7385 31.8739 94.8872 33.7252 94.8872 36.0089C94.8872 38.2925 96.7385 40.1438 99.0222 40.1438Z" fill="#15142C" fill-opacity="0.2"/>
<path opacity="0.5" d="M112.574 40.1438C114.857 40.1438 116.709 38.2925 116.709 36.0089C116.709 33.7252 114.857 31.8739 112.574 31.8739C110.29 31.8739 108.439 33.7252 108.439 36.0089C108.439 38.2925 110.29 40.1438 112.574 40.1438Z" fill="#15142C" fill-opacity="0.2"/>
<path opacity="0.5" d="M85.4709 24.2069C87.7545 24.2069 89.6058 22.3556 89.6058 20.072C89.6058 17.7883 87.7545 15.937 85.4709 15.937C83.1872 15.937 81.3359 17.7883 81.3359 20.072C81.3359 22.3556 83.1872 24.2069 85.4709 24.2069Z" fill="#15142C" fill-opacity="0.2"/>
<path opacity="0.5" d="M85.4709 8.26994C87.7545 8.26994 89.6058 6.41865 89.6058 4.13497C89.6058 1.85129 87.7545 0 85.4709 0C83.1872 0 81.3359 1.85129 81.3359 4.13497C81.3359 6.41865 83.1872 8.26994 85.4709 8.26994Z" fill="#15142C" fill-opacity="0.2"/>
<path opacity="0.5" d="M58.3678 67.8588C60.6515 67.8588 62.5027 66.0075 62.5027 63.7238C62.5027 61.4402 60.6515 59.5889 58.3678 59.5889C56.0842 59.5889 54.2329 61.4402 54.2329 63.7238C54.2329 66.0075 56.0842 67.8588 58.3678 67.8588Z" fill="#15142C" fill-opacity="0.2"/>
<path opacity="0.5" d="M112.574 67.8588C114.857 67.8588 116.709 66.0075 116.709 63.7238C116.709 61.4402 114.857 59.5889 112.574 59.5889C110.29 59.5889 108.439 61.4402 108.439 63.7238C108.439 66.0075 110.29 67.8588 112.574 67.8588Z" fill="#15142C" fill-opacity="0.2"/>
<path opacity="0.5" d="M58.3678 81.716C60.6515 81.716 62.5027 79.8647 62.5027 77.581C62.5027 75.2973 60.6515 73.446 58.3678 73.446C56.0842 73.446 54.2329 75.2973 54.2329 77.581C54.2329 79.8647 56.0842 81.716 58.3678 81.716Z" fill="#15142C" fill-opacity="0.2"/>
<path opacity="0.5" d="M85.4709 81.716C87.7545 81.716 89.6058 79.8647 89.6058 77.581C89.6058 75.2973 87.7545 73.446 85.4709 73.446C83.1872 73.446 81.3359 75.2973 81.3359 77.581C81.3359 79.8647 83.1872 81.716 85.4709 81.716Z" fill="#15142C" fill-opacity="0.2"/>
<path opacity="0.5" d="M71.9194 51.8782C73.2447 51.8782 74.3191 50.8038 74.3191 49.4785C74.3191 48.1532 73.2447 47.0789 71.9194 47.0789C70.5941 47.0789 69.5198 48.1532 69.5198 49.4785C69.5198 50.8038 70.5941 51.8782 71.9194 51.8782Z" fill="#15142C" fill-opacity="0.2"/>
<path opacity="0.5" d="M71.9194 67.8588C74.2031 67.8588 76.0544 66.0075 76.0544 63.7238C76.0544 61.4402 74.2031 59.5889 71.9194 59.5889C69.6358 59.5889 67.7845 61.4402 67.7845 63.7238C67.7845 66.0075 69.6358 67.8588 71.9194 67.8588Z" fill="#15142C" fill-opacity="0.2"/>
<path opacity="0.5" d="M126.125 67.8588C128.409 67.8588 130.26 66.0075 130.26 63.7238C130.26 61.4402 128.409 59.5889 126.125 59.5889C123.842 59.5889 121.99 61.4402 121.99 63.7238C121.99 66.0075 123.842 67.8588 126.125 67.8588Z" fill="#15142C" fill-opacity="0.2"/>
<path opacity="0.5" d="M17.7135 9.35976C19.9972 9.35976 21.8484 7.50848 21.8484 5.2248C21.8484 2.94113 19.9972 1.08984 17.7135 1.08984C15.4298 1.08984 13.5786 2.94113 13.5786 5.2248C13.5786 7.50848 15.4298 9.35976 17.7135 9.35976Z" fill="#15142C" fill-opacity="0.2"/>
<path opacity="0.5" d="M31.2649 9.35976C33.5486 9.35976 35.3998 7.50848 35.3998 5.2248C35.3998 2.94113 33.5486 1.08984 31.2649 1.08984C28.9813 1.08984 27.13 2.94113 27.13 5.2248C27.13 7.50848 28.9813 9.35976 31.2649 9.35976Z" fill="#15142C" fill-opacity="0.2"/>
<path opacity="0.5" d="M85.4708 51.8782C86.7961 51.8782 87.8704 50.8038 87.8704 49.4785C87.8704 48.1532 86.7961 47.0789 85.4708 47.0789C84.1455 47.0789 83.0711 48.1532 83.0711 49.4785C83.0711 50.8038 84.1455 51.8782 85.4708 51.8782Z" fill="#15142C" fill-opacity="0.2"/>
</g>
</g>
<defs>
<filter id="filter0_i" x="0.0270996" y="0" width="130.233" height="85.716" filterUnits="userSpaceOnUse" color-interpolation-filters="sRGB">
<feFlood flood-opacity="0" result="BackgroundImageFix"/>
<feBlend mode="normal" in="SourceGraphic" in2="BackgroundImageFix" result="shape"/>
<feColorMatrix in="SourceAlpha" type="matrix" values="0 0 0 0 0 0 0 0 0 0 0 0 0 0 0 0 0 0 127 0" result="hardAlpha"/>
<feOffset dy="4"/>
<feGaussianBlur stdDeviation="2"/>
<feComposite in2="hardAlpha" operator="arithmetic" k2="-1" k3="1"/>
<feColorMatrix type="matrix" values="0 0 0 0 0 0 0 0 0 0 0 0 0 0 0 0 0 0 0.15 0"/>
<feBlend mode="normal" in2="shape" result="effect1_innerShadow"/>
</filter>
</defs>
</svg>
