<svg width="574" height="325" viewBox="0 0 574 325" fill="none" xmlns="http://www.w3.org/2000/svg">
<g opacity="0.5">
<circle cx="16.5" cy="308.5" r="16.5" fill="#15142C" fill-opacity="0.2"/>
<circle cx="179.5" cy="141.5" r="16.5" fill="#15142C" fill-opacity="0.2"/>
<circle cx="179.5" cy="77.5" r="16.5" fill="#15142C" fill-opacity="0.2"/>
<circle cx="71.5" cy="308.5" r="16.5" fill="#15142C" fill-opacity="0.2"/>
<circle cx="234.5" cy="141.5" r="16.5" fill="#15142C" fill-opacity="0.2"/>
<circle cx="343.5" cy="195.5" r="9.5" fill="#15142C" fill-opacity="0.2"/>
<circle cx="343.5" cy="253.5" r="16.5" fill="#15142C" fill-opacity="0.2"/>
<circle cx="125.5" cy="308.5" r="16.5" fill="#15142C" fill-opacity="0.2"/>
<circle cx="288.5" cy="141.5" r="16.5" fill="#15142C" fill-opacity="0.2"/>
<circle cx="288.5" cy="77.5" r="16.5" fill="#15142C" fill-opacity="0.2"/>
<circle cx="509.5" cy="77.5" r="16.5" fill="#15142C" fill-opacity="0.2"/>
<circle cx="288.5" cy="16.5" r="16.5" fill="#15142C" fill-opacity="0.2"/>
<circle cx="179.5" cy="253.5" r="16.5" fill="#15142C" fill-opacity="0.2"/>
<circle cx="397.5" cy="253.5" r="16.5" fill="#15142C" fill-opacity="0.2"/>
<circle cx="179.5" cy="308.5" r="16.5" fill="#15142C" fill-opacity="0.2"/>
<circle cx="343.5" cy="141.5" r="16.5" fill="#15142C" fill-opacity="0.2"/>
<circle cx="234.5" cy="195.5" r="9.5" fill="#15142C" fill-opacity="0.2"/>
<circle cx="397.5" cy="195.5" r="9.5" fill="#15142C" fill-opacity="0.2"/>
<circle cx="557.5" cy="195.5" r="9.5" fill="#15142C" fill-opacity="0.2"/>
<circle cx="234.5" cy="253.5" r="16.5" fill="#15142C" fill-opacity="0.2"/>
<circle cx="451.5" cy="253.5" r="16.5" fill="#15142C" fill-opacity="0.2"/>
<circle cx="234.5" cy="308.5" r="16.5" fill="#15142C" fill-opacity="0.2"/>
<circle cx="397.5" cy="141.5" r="16.5" fill="#15142C" fill-opacity="0.2"/>
<circle cx="451.5" cy="141.5" r="16.5" fill="#15142C" fill-opacity="0.2"/>
<circle cx="451.5" cy="16.5" r="16.5" fill="#15142C" fill-opacity="0.2"/>
<circle cx="506.5" cy="16.5" r="16.5" fill="#15142C" fill-opacity="0.2"/>
<circle cx="288.5" cy="195.5" r="9.5" fill="#15142C" fill-opacity="0.2"/>
<circle cx="451.5" cy="195.5" r="9.5" fill="#15142C" fill-opacity="0.2"/>
<circle cx="506.5" cy="141.5" r="16.5" fill="#15142C" fill-opacity="0.2"/>
<circle cx="557.5" cy="141.5" r="16.5" fill="#15142C" fill-opacity="0.2"/>
</g>
</svg>
