<svg width="359" height="325" viewBox="0 0 359 325" fill="none" xmlns="http://www.w3.org/2000/svg">
<g opacity="0.5">
<circle cx="179.5" cy="141.5" r="16.5" fill="#15142C" fill-opacity="0.2"/>
<circle cx="16.5" cy="141.5" r="16.5" fill="#15142C" fill-opacity="0.2"/>
<circle cx="179.5" cy="195.5" r="9.5" fill="#15142C" fill-opacity="0.2"/>
<circle cx="16.5" cy="195.5" r="9.5" fill="#15142C" fill-opacity="0.2"/>
<circle cx="70.5" cy="253.5" r="16.5" fill="#15142C" fill-opacity="0.2"/>
<circle cx="70.5" cy="308.5" r="16.5" fill="#15142C" fill-opacity="0.2"/>
<circle cx="233.5" cy="141.5" r="16.5" fill="#15142C" fill-opacity="0.2"/>
<circle cx="70.5" cy="141.5" r="16.5" fill="#15142C" fill-opacity="0.2"/>
<circle cx="233.5" cy="77.5" r="16.5" fill="#15142C" fill-opacity="0.2"/>
<circle cx="124.5" cy="77.5" r="16.5" fill="#15142C" fill-opacity="0.2"/>
<circle cx="124.5" cy="253.5" r="16.5" fill="#15142C" fill-opacity="0.2"/>
<circle cx="124.5" cy="308.5" r="16.5" fill="#15142C" fill-opacity="0.2"/>
<circle cx="287.5" cy="141.5" r="16.5" fill="#15142C" fill-opacity="0.2"/>
<circle cx="233.5" cy="195.5" r="9.5" fill="#15142C" fill-opacity="0.2"/>
<circle cx="70.5" cy="195.5" r="9.5" fill="#15142C" fill-opacity="0.2"/>
<circle cx="179.5" cy="253.5" r="16.5" fill="#15142C" fill-opacity="0.2"/>
<circle cx="179.5" cy="308.5" r="16.5" fill="#15142C" fill-opacity="0.2"/>
<circle opacity="0.6" cx="342.5" cy="141.5" r="16.5" fill="#15142C" fill-opacity="0.2"/>
<circle cx="342.5" cy="77.5" r="16.5" fill="#15142C" fill-opacity="0.2"/>
<circle cx="342.5" cy="16.5" r="16.5" fill="#15142C" fill-opacity="0.2"/>
<circle cx="233.5" cy="253.5" r="16.5" fill="#15142C" fill-opacity="0.2"/>
<circle cx="233.5" cy="308.5" r="16.5" fill="#15142C" fill-opacity="0.2"/>
<circle cx="342.5" cy="308.5" r="16.5" fill="#15142C" fill-opacity="0.2"/>
<circle cx="287.5" cy="195.5" r="9.5" fill="#15142C" fill-opacity="0.2"/>
<circle cx="287.5" cy="253.5" r="16.5" fill="#15142C" fill-opacity="0.2"/>
<circle cx="70.5" cy="16.5" r="16.5" fill="#15142C" fill-opacity="0.2"/>
<circle cx="124.5" cy="16.5" r="16.5" fill="#15142C" fill-opacity="0.2"/>
<circle cx="342.5" cy="195.5" r="9.5" fill="#15142C" fill-opacity="0.2"/>
</g>
</svg>
