<svg width="171" height="82" viewBox="0 0 171 82" fill="none" xmlns="http://www.w3.org/2000/svg">
<g filter="url(#filter0_i)">
<g opacity="0.5">
<path opacity="0.5" d="M31.3229 81.716C33.6066 81.716 35.4579 79.8647 35.4579 77.581C35.4579 75.2973 33.6066 73.446 31.3229 73.446C29.0393 73.446 27.188 75.2973 27.188 77.581C27.188 79.8647 29.0393 81.716 31.3229 81.716Z" fill="#15142C" fill-opacity="0.2"/>
<path opacity="0.5" d="M4.21983 81.716C6.50346 81.716 8.35472 79.8647 8.35472 77.581C8.35472 75.2973 6.50346 73.446 4.21983 73.446C1.93621 73.446 0.0849609 75.2973 0.0849609 77.581C0.0849609 79.8647 1.93621 81.716 4.21983 81.716Z" fill="#15142C" fill-opacity="0.2"/>
<path opacity="0.5" d="M71.9775 40.1438C74.2612 40.1438 76.1124 38.2925 76.1124 36.0089C76.1124 33.7252 74.2612 31.8739 71.9775 31.8739C69.6938 31.8739 67.8425 33.7252 67.8425 36.0089C67.8425 38.2925 69.6938 40.1438 71.9775 40.1438Z" fill="#15142C" fill-opacity="0.2"/>
<path opacity="0.5" d="M44.8746 81.716C47.1582 81.716 49.0094 79.8647 49.0094 77.581C49.0094 75.2973 47.1582 73.446 44.8746 73.446C42.5911 73.446 40.7399 75.2973 40.7399 77.581C40.7399 79.8647 42.5911 81.716 44.8746 81.716Z" fill="#15142C" fill-opacity="0.2"/>
<path opacity="0.5" d="M17.7715 81.716C20.0552 81.716 21.9065 79.8647 21.9065 77.581C21.9065 75.2973 20.0552 73.446 17.7715 73.446C15.4878 73.446 13.6365 75.2973 13.6365 77.581C13.6365 79.8647 15.4878 81.716 17.7715 81.716Z" fill="#15142C" fill-opacity="0.2"/>
<path opacity="0.5" d="M85.5289 40.1438C87.8125 40.1438 89.6637 38.2925 89.6637 36.0089C89.6637 33.7252 87.8125 31.8739 85.5289 31.8739C83.2454 31.8739 81.3942 33.7252 81.3942 36.0089C81.3942 38.2925 83.2454 40.1438 85.5289 40.1438Z" fill="#15142C" fill-opacity="0.2"/>
<path opacity="0.5" d="M112.632 51.8782C113.957 51.8782 115.032 50.8038 115.032 49.4785C115.032 48.1532 113.957 47.0789 112.632 47.0789C111.307 47.0789 110.233 48.1532 110.233 49.4785C110.233 50.8038 111.307 51.8782 112.632 51.8782Z" fill="#15142C" fill-opacity="0.2"/>
<path opacity="0.5" d="M112.632 67.8588C114.916 67.8588 116.767 66.0075 116.767 63.7238C116.767 61.4402 114.916 59.5889 112.632 59.5889C110.348 59.5889 108.497 61.4402 108.497 63.7238C108.497 66.0075 110.348 67.8588 112.632 67.8588Z" fill="#15142C" fill-opacity="0.2"/>
<path opacity="0.5" d="M58.4262 81.716C60.7099 81.716 62.5613 79.8647 62.5613 77.581C62.5613 75.2973 60.7099 73.446 58.4262 73.446C56.1425 73.446 54.2911 75.2973 54.2911 77.581C54.2911 79.8647 56.1425 81.716 58.4262 81.716Z" fill="#15142C" fill-opacity="0.2"/>
<path opacity="0.5" d="M99.0804 40.1438C101.364 40.1438 103.216 38.2925 103.216 36.0089C103.216 33.7252 101.364 31.8739 99.0804 31.8739C96.7967 31.8739 94.9453 33.7252 94.9453 36.0089C94.9453 38.2925 96.7967 40.1438 99.0804 40.1438Z" fill="#15142C" fill-opacity="0.2"/>
<path opacity="0.5" d="M99.0804 24.2069C101.364 24.2069 103.216 22.3556 103.216 20.072C103.216 17.7883 101.364 15.937 99.0804 15.937C96.7967 15.937 94.9453 17.7883 94.9453 20.072C94.9453 22.3556 96.7967 24.2069 99.0804 24.2069Z" fill="#15142C" fill-opacity="0.2"/>
<path opacity="0.5" d="M154.065 24.2069C156.349 24.2069 158.2 22.3556 158.2 20.072C158.2 17.7883 156.349 15.937 154.065 15.937C151.781 15.937 149.93 17.7883 149.93 20.072C149.93 22.3556 151.781 24.2069 154.065 24.2069Z" fill="#15142C" fill-opacity="0.2"/>
<path opacity="0.5" d="M99.0804 8.26994C101.364 8.26994 103.216 6.41865 103.216 4.13497C103.216 1.85129 101.364 0 99.0804 0C96.7967 0 94.9453 1.85129 94.9453 4.13497C94.9453 6.41865 96.7967 8.26994 99.0804 8.26994Z" fill="#15142C" fill-opacity="0.2"/>
<path opacity="0.5" d="M71.9775 67.8588C74.2612 67.8588 76.1124 66.0075 76.1124 63.7238C76.1124 61.4402 74.2612 59.5889 71.9775 59.5889C69.6938 59.5889 67.8425 61.4402 67.8425 63.7238C67.8425 66.0075 69.6938 67.8588 71.9775 67.8588Z" fill="#15142C" fill-opacity="0.2"/>
<path opacity="0.5" d="M31.3229 67.8588C33.6066 67.8588 35.4579 66.0075 35.4579 63.7238C35.4579 61.4402 33.6066 59.5889 31.3229 59.5889C29.0393 59.5889 27.188 61.4402 27.188 63.7238C27.188 66.0075 29.0393 67.8588 31.3229 67.8588Z" fill="#15142C" fill-opacity="0.2"/>
<path opacity="0.5" d="M126.182 67.8588C128.466 67.8588 130.317 66.0075 130.317 63.7238C130.317 61.4402 128.466 59.5889 126.182 59.5889C123.899 59.5889 122.047 61.4402 122.047 63.7238C122.047 66.0075 123.899 67.8588 126.182 67.8588Z" fill="#15142C" fill-opacity="0.2"/>
<path opacity="0.5" d="M71.9775 81.716C74.2612 81.716 76.1124 79.8647 76.1124 77.581C76.1124 75.2973 74.2612 73.446 71.9775 73.446C69.6938 73.446 67.8425 75.2973 67.8425 77.581C67.8425 79.8647 69.6938 81.716 71.9775 81.716Z" fill="#15142C" fill-opacity="0.2"/>
<path opacity="0.5" d="M112.632 40.1438C114.916 40.1438 116.767 38.2925 116.767 36.0089C116.767 33.7252 114.916 31.8739 112.632 31.8739C110.348 31.8739 108.497 33.7252 108.497 36.0089C108.497 38.2925 110.348 40.1438 112.632 40.1438Z" fill="#15142C" fill-opacity="0.2"/>
<path opacity="0.5" d="M85.529 51.8782C86.8543 51.8782 87.9286 50.8038 87.9286 49.4785C87.9286 48.1532 86.8543 47.0789 85.529 47.0789C84.2037 47.0789 83.1293 48.1532 83.1293 49.4785C83.1293 50.8038 84.2037 51.8782 85.529 51.8782Z" fill="#15142C" fill-opacity="0.2"/>
<path opacity="0.5" d="M126.183 51.8782C127.508 51.8782 128.582 50.8038 128.582 49.4785C128.582 48.1532 127.508 47.0789 126.183 47.0789C124.857 47.0789 123.783 48.1532 123.783 49.4785C123.783 50.8038 124.857 51.8782 126.183 51.8782Z" fill="#15142C" fill-opacity="0.2"/>
<path opacity="0.5" d="M166.838 51.8782C168.163 51.8782 169.237 50.8038 169.237 49.4785C169.237 48.1532 168.163 47.0789 166.838 47.0789C165.512 47.0789 164.438 48.1532 164.438 49.4785C164.438 50.8038 165.512 51.8782 166.838 51.8782Z" fill="#15142C" fill-opacity="0.2"/>
<path opacity="0.5" d="M85.5289 67.8588C87.8125 67.8588 89.6637 66.0075 89.6637 63.7238C89.6637 61.4402 87.8125 59.5889 85.5289 59.5889C83.2454 59.5889 81.3942 61.4402 81.3942 63.7238C81.3942 66.0075 83.2454 67.8588 85.5289 67.8588Z" fill="#15142C" fill-opacity="0.2"/>
<path opacity="0.5" d="M139.735 67.8588C142.019 67.8588 143.87 66.0075 143.87 63.7238C143.87 61.4402 142.019 59.5889 139.735 59.5889C137.451 59.5889 135.6 61.4402 135.6 63.7238C135.6 66.0075 137.451 67.8588 139.735 67.8588Z" fill="#15142C" fill-opacity="0.2"/>
<path opacity="0.5" d="M85.5289 81.716C87.8125 81.716 89.6637 79.8647 89.6637 77.581C89.6637 75.2973 87.8125 73.446 85.5289 73.446C83.2454 73.446 81.3942 75.2973 81.3942 77.581C81.3942 79.8647 83.2454 81.716 85.5289 81.716Z" fill="#15142C" fill-opacity="0.2"/>
<path opacity="0.5" d="M126.182 40.1438C128.466 40.1438 130.317 38.2925 130.317 36.0089C130.317 33.7252 128.466 31.8739 126.182 31.8739C123.899 31.8739 122.047 33.7252 122.047 36.0089C122.047 38.2925 123.899 40.1438 126.182 40.1438Z" fill="#15142C" fill-opacity="0.2"/>
<path opacity="0.5" d="M139.735 40.1438C142.019 40.1438 143.87 38.2925 143.87 36.0089C143.87 33.7252 142.019 31.8739 139.735 31.8739C137.451 31.8739 135.6 33.7252 135.6 36.0089C135.6 38.2925 137.451 40.1438 139.735 40.1438Z" fill="#15142C" fill-opacity="0.2"/>
<path opacity="0.5" d="M139.735 9.35976C142.019 9.35976 143.87 7.50848 143.87 5.2248C143.87 2.94113 142.019 1.08984 139.735 1.08984C137.451 1.08984 135.6 2.94113 135.6 5.2248C135.6 7.50848 137.451 9.35976 139.735 9.35976Z" fill="#15142C" fill-opacity="0.2"/>
<path opacity="0.5" d="M153.288 9.35976C155.571 9.35976 157.423 7.50848 157.423 5.2248C157.423 2.94113 155.571 1.08984 153.288 1.08984C151.004 1.08984 149.153 2.94113 149.153 5.2248C149.153 7.50848 151.004 9.35976 153.288 9.35976Z" fill="#15142C" fill-opacity="0.2"/>
<path opacity="0.5" d="M99.0802 51.8782C100.405 51.8782 101.48 50.8038 101.48 49.4785C101.48 48.1532 100.405 47.0789 99.0802 47.0789C97.755 47.0789 96.6807 48.1532 96.6807 49.4785C96.6807 50.8038 97.755 51.8782 99.0802 51.8782Z" fill="#15142C" fill-opacity="0.2"/>
<path opacity="0.5" d="M139.735 51.8782C141.06 51.8782 142.134 50.8038 142.134 49.4785C142.134 48.1532 141.06 47.0789 139.735 47.0789C138.409 47.0789 137.335 48.1532 137.335 49.4785C137.335 50.8038 138.409 51.8782 139.735 51.8782Z" fill="#15142C" fill-opacity="0.2"/>
<path opacity="0.5" d="M153.288 40.1438C155.571 40.1438 157.423 38.2925 157.423 36.0089C157.423 33.7252 155.571 31.8739 153.288 31.8739C151.004 31.8739 149.153 33.7252 149.153 36.0089C149.153 38.2925 151.004 40.1438 153.288 40.1438Z" fill="#15142C" fill-opacity="0.2"/>
<path opacity="0.5" d="M166.838 40.1438C169.121 40.1438 170.972 38.2925 170.972 36.0089C170.972 33.7252 169.121 31.8739 166.838 31.8739C164.554 31.8739 162.703 33.7252 162.703 36.0089C162.703 38.2925 164.554 40.1438 166.838 40.1438Z" fill="#15142C" fill-opacity="0.2"/>
</g>
</g>
<defs>
<filter id="filter0_i" x="0.0849609" y="0" width="170.887" height="85.716" filterUnits="userSpaceOnUse" color-interpolation-filters="sRGB">
<feFlood flood-opacity="0" result="BackgroundImageFix"/>
<feBlend mode="normal" in="SourceGraphic" in2="BackgroundImageFix" result="shape"/>
<feColorMatrix in="SourceAlpha" type="matrix" values="0 0 0 0 0 0 0 0 0 0 0 0 0 0 0 0 0 0 127 0" result="hardAlpha"/>
<feOffset dy="4"/>
<feGaussianBlur stdDeviation="2"/>
<feComposite in2="hardAlpha" operator="arithmetic" k2="-1" k3="1"/>
<feColorMatrix type="matrix" values="0 0 0 0 0 0 0 0 0 0 0 0 0 0 0 0 0 0 0.15 0"/>
<feBlend mode="normal" in2="shape" result="effect1_innerShadow"/>
</filter>
</defs>
</svg>
